<svg width="100" height="100" viewBox="0 0 100 100" fill="none" xmlns="http://www.w3.org/2000/svg">
<rect width="100" height="100" rx="14" fill="#F3F0E8"/>
<path d="M45.6913 32.4219L35.3151 67.1306H21.748L32.1243 32.4219H45.6913Z" fill="#A10000"/>
<path d="M69.6606 32.4219L59.2844 67.1306H45.6914L56.0936 32.4219H69.6606Z" fill="#A10000"/>
<path d="M45.9234 32.4219H45.4824V67.1306H45.9234V32.4219Z" fill="#A10000"/>
<path d="M77.3654 57.8957C76.5871 57.4028 75.7311 57.1434 74.875 57.0915C74.8491 57.0915 74.7972 57.0915 74.7713 57.0915C74.2265 57.0915 71.84 56.9099 70.4392 55.0163C70.4392 55.0163 70.3614 54.9384 70.2316 54.7309C70.0501 54.4196 69.9722 54.0305 69.9722 53.6673V32.4219H69.7907H69.5312V58.0254V60.4898V60.7751C69.6091 62.4613 69.8166 63.9658 70.3873 64.77C70.3873 64.77 70.3873 64.7959 70.4132 64.7959C70.8283 65.4444 71.373 66.0151 72.0734 66.4302C74.4341 67.8569 77.521 67.1046 78.9477 64.744C80.2967 62.5131 79.5703 59.3224 77.3654 57.8957Z" fill="#A10000"/>
</svg>
