<svg width="28" height="28" viewBox="0 0 28 28" fill="none" xmlns="http://www.w3.org/2000/svg">
<path d="M6.84917 9.69834C8.42272 9.69834 9.69834 8.42272 9.69834 6.84917C9.69834 5.27562 8.42272 4 6.84917 4C5.27562 4 4 5.27562 4 6.84917C4 8.42272 5.27562 9.69834 6.84917 9.69834Z" fill="black"/>
<path d="M13.9976 9.69834C15.5712 9.69834 16.8468 8.42272 16.8468 6.84917C16.8468 5.27562 15.5712 4 13.9976 4C12.4241 4 11.1484 5.27562 11.1484 6.84917C11.1484 8.42272 12.4241 9.69834 13.9976 9.69834Z" fill="black"/>
<path d="M13.9976 16.8487C15.5712 16.8487 16.8468 15.5731 16.8468 13.9996C16.8468 12.426 15.5712 11.1504 13.9976 11.1504C12.4241 11.1504 11.1484 12.426 11.1484 13.9996C11.1484 15.5731 12.4241 16.8487 13.9976 16.8487Z" fill="black"/>
<path d="M13.9976 24.0001C15.5712 24.0001 16.8468 22.7245 16.8468 21.1509C16.8468 19.5774 15.5712 18.3018 13.9976 18.3018C12.4241 18.3018 11.1484 19.5774 11.1484 21.1509C11.1484 22.7245 12.4241 24.0001 13.9976 24.0001Z" fill="black"/>
<path d="M21.1499 9.69834C22.7235 9.69834 23.9991 8.42272 23.9991 6.84917C23.9991 5.27562 22.7235 4 21.1499 4C19.5764 4 18.3008 5.27562 18.3008 6.84917C18.3008 8.42272 19.5764 9.69834 21.1499 9.69834Z" fill="black"/>
</svg>
