<svg width="40" height="40" viewBox="0 0 40 40" fill="none" xmlns="http://www.w3.org/2000/svg">
<path d="M20.0084 5.94483C24.5914 5.94483 25.1341 5.96493 26.9365 6.0453C28.6116 6.11898 29.5162 6.40028 30.1192 6.6347C30.9166 6.9428 31.4928 7.31787 32.0891 7.91397C32.6921 8.51677 33.0607 9.08607 33.3689 9.8831C33.6034 10.4859 33.8848 11.3968 33.9585 13.0645C34.0389 14.8729 34.059 15.4154 34.059 19.99C34.059 24.5712 34.0389 25.1138 33.9585 26.9155C33.8848 28.5899 33.6034 29.4941 33.3689 30.0969C33.0607 30.8939 32.6854 31.4699 32.0891 32.066C31.4861 32.6688 30.9166 33.0372 30.1192 33.3453C29.5162 33.5797 28.6049 33.861 26.9365 33.9347C25.1274 34.015 24.5847 34.0351 20.0084 34.0351C15.4253 34.0351 14.8826 34.015 13.0802 33.9347C11.4051 33.861 10.5006 33.5797 9.89754 33.3453C9.1002 33.0372 8.52397 32.6621 7.92764 32.066C7.3246 31.4632 6.95609 30.8939 6.64787 30.0969C6.41336 29.4941 6.13194 28.5832 6.05824 26.9155C5.97783 25.1071 5.95773 24.5645 5.95773 19.99C5.95773 15.4087 5.97783 14.8662 6.05824 13.0645C6.13194 11.3901 6.41336 10.4859 6.64787 9.8831C6.95609 9.08607 7.33131 8.51007 7.92764 7.91397C8.53067 7.31117 9.1002 6.9428 9.89754 6.6347C10.5006 6.40028 11.4118 6.11898 13.0802 6.0453C14.8826 5.96493 15.4253 5.94483 20.0084 5.94483ZM20.0084 2.85718C15.3516 2.85718 14.7687 2.87727 12.9395 2.95764C11.117 3.03802 9.86404 3.33272 8.77858 3.75467C7.64622 4.19673 6.68807 4.77943 5.73662 5.7372C4.77847 6.68828 4.19554 7.64606 3.75332 8.77128C3.33119 9.86301 3.03638 11.1088 2.95597 12.9306C2.87557 14.7658 2.85547 15.3485 2.85547 20.0034C2.85547 24.6583 2.87557 25.241 2.95597 27.0695C3.03638 28.8913 3.33119 30.1438 3.75332 31.2288C4.19554 32.3607 4.77847 33.3185 5.73662 34.2696C6.68807 35.2206 7.64622 35.81 8.77188 36.2454C9.86404 36.6674 11.1103 36.9621 12.9328 37.0424C14.762 37.1228 15.3449 37.1429 20.0017 37.1429C24.6584 37.1429 25.2414 37.1228 27.0705 37.0424C28.893 36.9621 30.146 36.6674 31.2315 36.2454C32.3571 35.81 33.3153 35.2206 34.2667 34.2696C35.2182 33.3185 35.8078 32.3607 36.2433 31.2355C36.6655 30.1438 36.9603 28.898 37.0407 27.0762C37.1211 25.2477 37.1412 24.665 37.1412 20.0101C37.1412 15.3552 37.1211 14.7725 37.0407 12.944C36.9603 11.1222 36.6655 9.86971 36.2433 8.78467C35.8212 7.64606 35.2383 6.68828 34.2801 5.7372C33.3287 4.78613 32.3705 4.19673 31.2449 3.76137C30.1527 3.33941 28.9064 3.04471 27.0839 2.96434C25.2481 2.87727 24.6651 2.85718 20.0084 2.85718Z" fill="white"/>
<path d="M20.0102 11.1958C15.1457 11.1958 11.1992 15.1408 11.1992 20.0033C11.1992 24.8659 15.1457 28.8109 20.0102 28.8109C24.8746 28.8109 28.8212 24.8659 28.8212 20.0033C28.8212 15.1408 24.8746 11.1958 20.0102 11.1958ZM20.0102 25.7165C16.8543 25.7165 14.2948 23.158 14.2948 20.0033C14.2948 16.8487 16.8543 14.2902 20.0102 14.2902C23.1661 14.2902 25.7256 16.8487 25.7256 20.0033C25.7256 23.158 23.1661 25.7165 20.0102 25.7165Z" fill="white"/>
<path d="M31.2234 10.8475C31.2234 11.9861 30.2987 12.9037 29.1664 12.9037C28.0273 12.9037 27.1094 11.9794 27.1094 10.8475C27.1094 9.70885 28.034 8.79126 29.1664 8.79126C30.2987 8.79126 31.2234 9.71555 31.2234 10.8475Z" fill="white"/>
</svg>
