<svg width="29" height="17" viewBox="0 0 29 17" fill="none" xmlns="http://www.w3.org/2000/svg">
<path d="M11.7199 0L6.64085 16.9894H0L5.07904 0H11.7199Z" fill="#A10000"/>
<path d="M23.4513 0L18.3723 16.9894H11.7188L16.8105 0H23.4513Z" fill="#A10000"/>
<path d="M11.833 0H11.6172V16.9894H11.833V0Z" fill="#A10000"/>
<path d="M27.2253 12.469C26.8444 12.2278 26.4254 12.1008 26.0063 12.0754C25.9936 12.0754 25.9682 12.0754 25.9555 12.0754C25.6889 12.0754 24.5207 11.9865 23.835 11.0596C23.835 11.0596 23.7969 11.0215 23.7335 10.9199C23.6446 10.7676 23.6065 10.5771 23.6065 10.3993V0H23.5176H23.3906V12.5325V13.7388V13.8785C23.4287 14.7038 23.5303 15.4403 23.8096 15.8339C23.8096 15.8339 23.8096 15.8466 23.8223 15.8466C24.0255 16.1641 24.2922 16.4434 24.635 16.6466C25.7905 17.3449 27.3015 16.9767 27.9999 15.8212C28.6601 14.7292 28.3046 13.1674 27.2253 12.469Z" fill="#A10000"/>
</svg>
