<svg width="65" height="65" viewBox="0 0 65 65" fill="none" xmlns="http://www.w3.org/2000/svg">
<rect width="65" height="65" rx="11.2394" fill="#F3F0E8"/>
<path d="M29.6989 21.0742L22.9543 43.6349H14.1357L20.8803 21.0742H29.6989Z" fill="#A10000"/>
<path d="M45.2791 21.0742L38.5345 43.6349H29.6991L36.4605 21.0742H45.2791Z" fill="#A10000"/>
<path d="M29.8501 21.0742H29.5635V43.6349H29.8501V21.0742Z" fill="#A10000"/>
<path d="M50.2865 37.6322C49.7807 37.3118 49.2242 37.1432 48.6678 37.1095C48.6509 37.1095 48.6172 37.1095 48.6004 37.1095C48.2463 37.1095 46.695 36.9915 45.7845 35.7606C45.7845 35.7606 45.7339 35.71 45.6496 35.5751C45.5316 35.3728 45.481 35.1198 45.481 34.8838V21.0742H45.363H45.1943V37.7165V39.3183V39.5038C45.2449 40.5998 45.3798 41.5778 45.7508 42.1005C45.7508 42.1005 45.7508 42.1173 45.7676 42.1173C46.0374 42.5389 46.3915 42.9098 46.8468 43.1796C48.3812 44.107 50.3877 43.618 51.3151 42.0836C52.1919 40.6335 51.7197 38.5596 50.2865 37.6322Z" fill="#A10000"/>
</svg>
