<svg width="1920" height="840" viewBox="0 0 1920 840" fill="none" xmlns="http://www.w3.org/2000/svg">
<g clip-path="url(#clip0_2585_38477)">
<rect width="1920" height="840" fill="#980000"/>
<circle opacity="0.06" cx="870.5" cy="124.5" r="43.5" fill="url(#paint0_linear_2585_38477)"/>
<circle opacity="0.1" cx="216.5" cy="122.5" r="23.5" fill="url(#paint1_linear_2585_38477)"/>
<path opacity="0.1" fill-rule="evenodd" clip-rule="evenodd" d="M182.198 169.398C184.684 170.45 185.845 173.318 184.794 175.803C164.975 222.623 124.105 228.194 102.298 217.882C91.3908 212.724 83.0163 204.156 77.9216 194.214C69.1043 195.102 59.407 193.679 49.3507 188.892C35.1071 182.113 27.8226 167.821 24.6598 153.933C21.4906 140.018 22.1632 125.335 24.9256 116.081C25.6976 113.495 28.4197 112.025 31.0056 112.797C33.5915 113.569 35.062 116.291 34.29 118.877C32.0661 126.327 31.3465 139.284 34.1885 151.763C37.0369 164.27 43.1671 175.126 53.5507 180.068C60.8328 183.534 67.7787 184.862 74.1623 184.672C72.2677 177.976 71.7748 170.983 72.8722 164.206C75.6917 146.796 87.4899 136.132 99.129 134.431C104.963 133.579 111.021 135.014 115.275 139.515C119.533 144.021 121.158 150.716 120.018 158.709C118.476 169.527 109.63 181.256 97.1764 188.158C94.2998 189.752 91.2083 191.104 87.9369 192.142C92.1218 199.182 98.4286 205.242 106.476 209.047C123.19 216.951 158.111 213.77 175.794 171.993C176.846 169.508 179.713 168.346 182.198 169.398ZM83.9094 183.152C86.9585 182.278 89.8132 181.066 92.439 179.61C102.914 173.805 109.335 164.403 110.343 157.329C111.205 151.283 109.778 147.927 108.172 146.228C106.563 144.525 103.947 143.604 100.542 144.102C93.7014 145.101 84.7555 151.96 82.5193 165.769C81.5969 171.464 82.1138 177.438 83.9094 183.152Z" fill="url(#paint2_linear_2585_38477)"/>
<path opacity="0.1" fill-rule="evenodd" clip-rule="evenodd" d="M266.469 357.902C315.016 379.182 371.622 357.078 392.902 308.531C414.182 259.984 392.078 203.378 343.531 182.098C294.984 160.818 238.378 182.922 217.098 231.469C195.818 280.016 217.922 336.622 266.469 357.902ZM286.64 311.893C309.779 322.036 336.759 311.5 346.902 288.361C357.045 265.222 346.509 238.241 323.37 228.099C300.231 217.956 273.251 228.491 263.108 251.63C252.965 274.77 263.5 301.75 286.64 311.893Z" fill="url(#paint3_linear_2585_38477)"/>
<path opacity="0.1" fill-rule="evenodd" clip-rule="evenodd" d="M1688.31 -126.362C1558.64 -75.7252 1494.57 70.4467 1545.2 200.122C1595.84 329.797 1742.01 393.87 1871.69 343.233C2001.36 292.596 2065.43 146.424 2014.8 16.7492C1964.16 -112.926 1817.99 -176.999 1688.31 -126.362ZM1736.29 -3.45882C1674.49 20.6766 1643.95 90.3473 1668.08 152.155C1692.22 213.963 1761.89 244.502 1823.7 220.367C1885.5 196.232 1916.04 126.561 1891.91 64.7531C1867.77 2.94531 1798.1 -27.5942 1736.29 -3.45882Z" fill="url(#paint4_linear_2585_38477)"/>
<ellipse cx="940" cy="741.5" rx="118" ry="117.5" fill="url(#paint5_linear_2585_38477)"/>
<path fill-rule="evenodd" clip-rule="evenodd" d="M462.477 906.652C459.226 907.988 455.508 906.437 454.171 903.187C415.553 809.298 465.119 744.331 509.335 728.245C532.513 719.813 557.029 720.304 578.545 727.685C589.575 713.306 605.465 700.953 627.126 693.134C655.864 682.761 685.791 692.103 709.981 707.142C734.202 722.201 754.028 743.772 763.134 760.419C764.821 763.503 763.689 767.37 760.605 769.056C757.521 770.743 753.654 769.611 751.968 766.527C744.039 752.031 725.853 731.997 703.261 717.952C680.637 703.886 654.949 696.623 631.447 705.106C613.58 711.555 600.281 721.365 590.765 732.777C604.394 739.525 616.268 749.234 625.05 761.278C645.423 789.215 643.704 819.841 630.549 837.69C623.961 846.629 614.229 852.577 603.034 852.319C591.831 852.062 580.734 845.635 571.233 833.112C558.623 816.49 554.298 788.119 561.921 761.007C564.05 753.434 567.122 745.908 571.232 738.697C553.216 733.243 532.964 733.193 513.687 740.206C476.365 753.784 430.038 811.054 465.942 898.345C467.279 901.596 465.727 905.315 462.477 906.652ZM583.281 743.303C579.183 750.118 576.193 757.269 574.174 764.452C567.348 788.728 571.74 812.721 581.373 825.419C589.327 835.902 597.151 839.453 603.326 839.595C609.508 839.737 615.611 836.506 620.303 830.139C629.71 817.374 632.339 792.874 614.767 768.777C606.852 757.924 595.904 749.199 583.281 743.303Z" fill="url(#paint6_linear_2585_38477)"/>
</g>
<defs>
<linearGradient id="paint0_linear_2585_38477" x1="870.5" y1="81" x2="847.5" y2="198" gradientUnits="userSpaceOnUse">
<stop stop-opacity="0.9"/>
<stop offset="1" stop-opacity="0.31"/>
</linearGradient>
<linearGradient id="paint1_linear_2585_38477" x1="216.5" y1="99" x2="240" y2="163.435" gradientUnits="userSpaceOnUse">
<stop stop-opacity="0.85"/>
<stop offset="1" stop-opacity="0"/>
</linearGradient>
<linearGradient id="paint2_linear_2585_38477" x1="185.724" y1="184.35" x2="-11.5631" y2="90.2872" gradientUnits="userSpaceOnUse">
<stop/>
<stop offset="1" stop-opacity="0"/>
</linearGradient>
<linearGradient id="paint3_linear_2585_38477" x1="217.17" y1="328.213" x2="401" y2="226.085" gradientUnits="userSpaceOnUse">
<stop stop-opacity="0.8"/>
<stop offset="1" stop-opacity="0.31"/>
</linearGradient>
<linearGradient id="paint4_linear_2585_38477" x1="1789.5" y1="-75" x2="1683.27" y2="368.271" gradientUnits="userSpaceOnUse">
<stop stop-opacity="0.6"/>
<stop offset="1" stop-opacity="0.31"/>
</linearGradient>
<linearGradient id="paint5_linear_2585_38477" x1="822" y1="726" x2="1133.41" y2="825.207" gradientUnits="userSpaceOnUse">
<stop stop-opacity="0.07"/>
<stop offset="1" stop-opacity="0"/>
</linearGradient>
<linearGradient id="paint6_linear_2585_38477" x1="468.41" y1="909.139" x2="782.987" y2="714.455" gradientUnits="userSpaceOnUse">
<stop stop-opacity="0.1"/>
<stop offset="1" stop-opacity="0"/>
</linearGradient>
<clipPath id="clip0_2585_38477">
<rect width="1920" height="840" fill="white"/>
</clipPath>
</defs>
</svg>
