<svg width="94" height="26" viewBox="0 0 94 26" fill="none" xmlns="http://www.w3.org/2000/svg">
<path d="M20.8182 4.06881H19.3804V19.0744H20.8182V19.6515H13.6296V19.0744H15.0673V5.13652L9.37392 19.9401H8.71257L2.3291 4.73252V19.0744H4.62945V19.6515H0.0287539V19.0744H1.75401V4.06881H0V3.49168H6.41222L10.8979 14.313L15.0673 3.49168H20.8182V4.06881Z" fill="black"/>
<path d="M28.587 19.0744H30.0247V19.6515H22.8361V19.0744H24.2738V6.95449H23.1237V6.37736H28.587V19.0744ZM28.8458 2.56826C28.8458 3.26082 28.5966 3.8572 28.0982 4.35738C27.6189 4.83833 27.0247 5.0788 26.3154 5.0788C25.6253 5.0788 25.031 4.83833 24.5326 4.35738C24.0342 3.8572 23.785 3.26082 23.785 2.56826C23.785 1.85646 24.0342 1.25046 24.5326 0.750278C25.031 0.250093 25.6253 0 26.3154 0C27.0247 0 27.6189 0.250093 28.0982 0.750278C28.5966 1.25046 28.8458 1.85646 28.8458 2.56826Z" fill="black"/>
<path d="M47.1425 19.0744H48.5803V19.6515H41.3917V19.0744H42.8294V10.9945C42.8294 9.62856 42.6281 8.65705 42.2255 8.07991C41.823 7.50277 41.2191 7.21421 40.414 7.21421C39.3214 7.21421 38.4491 7.79134 37.7974 8.94562V19.0744H39.2351V19.6515H32.0465V19.0744H33.4842V6.95449H32.0465V6.37736H37.7974V7.87791C38.1616 7.37773 38.7271 6.9545 39.4939 6.60821C40.2798 6.24269 41.1233 6.05993 42.0243 6.05993C45.4364 6.05993 47.1425 7.91639 47.1425 11.6293V19.0744Z" fill="black"/>
<path d="M63.289 13.8801H54.6052C54.7969 17.266 56.11 18.9589 58.5445 18.9589C59.1963 18.9589 59.9343 18.805 60.7586 18.4972C61.6021 18.1894 62.2155 17.7566 62.5989 17.1987L63.0015 17.4872C62.5797 18.199 61.8609 18.7858 60.8449 19.2475C59.8289 19.7092 58.8129 19.9401 57.7969 19.9401C56.8001 19.9401 55.8991 19.8439 55.094 19.6515C54.2889 19.4399 53.5029 19.0936 52.7362 18.6127C51.9694 18.1317 51.3655 17.4103 50.9246 16.4484C50.5029 15.4865 50.292 14.3226 50.292 12.9567C50.292 10.6289 50.9342 8.90714 52.2186 7.79134C53.5029 6.65631 55.0557 6.08879 56.8768 6.08879C58.7171 6.08879 60.241 6.7044 61.4487 7.93563C62.6756 9.16685 63.289 11.1484 63.289 13.8801ZM54.5764 13.303H59.2634C59.2634 11.5331 59.0717 9.98446 58.6883 8.65705C58.3241 7.32963 57.7298 6.66593 56.9055 6.66593C56.0813 6.66593 55.487 7.3104 55.1228 8.59934C54.7585 9.86904 54.5764 11.3311 54.5764 12.9856V13.303Z" fill="black"/>
<path d="M72.5665 19.6515H65.378V19.0744H66.8157V6.95449H65.378V6.37736H71.1288V9.81132C71.3014 8.86867 71.6081 8.09915 72.049 7.50277C72.509 6.9064 73.0075 6.51202 73.5442 6.31965C74.1001 6.12727 74.6273 6.03108 75.1257 6.03108C75.6433 6.03108 76.1321 6.12727 76.5922 6.31965C77.0714 6.49279 77.426 6.85831 77.6561 7.4162C77.8861 7.95487 77.8957 8.50314 77.6848 9.06104C77.474 9.5997 77.1002 9.98446 76.5634 10.2153C76.0458 10.4462 75.5666 10.475 75.1257 10.3019C74.6848 10.1287 74.3685 9.89789 74.1768 9.60932C73.9851 9.30152 73.8509 9.01295 73.7742 8.74362C73.5825 8.03182 73.3238 7.67592 72.9979 7.67592C72.6337 7.67592 72.2311 8.31077 71.7902 9.58047C71.3493 10.8309 71.1288 12.1583 71.1288 13.5627V19.0744H72.5665V19.6515Z" fill="black"/>
<path d="M85.3737 22.8546C84.8561 23.9704 84.3098 24.7688 83.7347 25.2497C83.1596 25.7499 82.3928 26 81.4343 26C80.4759 26 79.7283 25.7884 79.1915 25.3652C78.6548 24.9612 78.3864 24.4129 78.3864 23.7203C78.3864 23.047 78.5781 22.5083 78.9615 22.1043C79.364 21.7003 79.8433 21.4983 80.3992 21.4983C80.9551 21.4983 81.4248 21.6041 81.8082 21.8158C82.1915 22.0274 82.4599 22.2582 82.6133 22.5083C83.035 23.1817 83.428 23.5183 83.7922 23.5183C84.1756 23.5183 84.5111 23.1913 84.7986 22.5372L86.0063 19.6804L79.2778 6.95449H78.1276V6.37736H85.8625V6.95449H84.4248L88.2779 14.5727L91.5846 6.95449H89.2843V6.37736H94V6.95449H92.2747L85.3737 22.8546Z" fill="black"/>
</svg>
