<svg width="40" height="40" viewBox="0 0 40 40" fill="none" xmlns="http://www.w3.org/2000/svg">
<path d="M9.78508 13.8548C12.033 13.8548 13.8553 12.0325 13.8553 9.7846C13.8553 7.53666 12.033 5.71436 9.78508 5.71436C7.53715 5.71436 5.71484 7.53666 5.71484 9.7846C5.71484 12.0325 7.53715 13.8548 9.78508 13.8548Z" fill="white"/>
<path d="M19.9999 13.8548C22.2479 13.8548 24.0702 12.0325 24.0702 9.7846C24.0702 7.53666 22.2479 5.71436 19.9999 5.71436C17.752 5.71436 15.9297 7.53666 15.9297 9.7846C15.9297 12.0325 17.752 13.8548 19.9999 13.8548Z" fill="white"/>
<path d="M19.9999 24.0704C22.2479 24.0704 24.0702 22.2481 24.0702 20.0002C24.0702 17.7522 22.2479 15.9299 19.9999 15.9299C17.752 15.9299 15.9297 17.7522 15.9297 20.0002C15.9297 22.2481 17.752 24.0704 19.9999 24.0704Z" fill="white"/>
<path d="M19.9999 34.2857C22.2479 34.2857 24.0702 32.4634 24.0702 30.2155C24.0702 27.9676 22.2479 26.1453 19.9999 26.1453C17.752 26.1453 15.9297 27.9676 15.9297 30.2155C15.9297 32.4634 17.752 34.2857 19.9999 34.2857Z" fill="white"/>
<path d="M30.2148 13.8548C32.4627 13.8548 34.285 12.0325 34.285 9.7846C34.285 7.53666 32.4627 5.71436 30.2148 5.71436C27.9668 5.71436 26.1445 7.53666 26.1445 9.7846C26.1445 12.0325 27.9668 13.8548 30.2148 13.8548Z" fill="white"/>
</svg>
