<svg width="42" height="43" viewBox="0 0 42 43" fill="none" xmlns="http://www.w3.org/2000/svg">
<path fill-rule="evenodd" clip-rule="evenodd" d="M32.1113 12.2656C32.1113 14.972 29.9349 17.166 27.2502 17.166C25.8452 17.166 24.5795 16.5651 23.692 15.6044L16.5914 19.8346C16.7485 20.3165 16.8335 20.8314 16.8335 21.3663C16.8335 21.9012 16.7485 22.4161 16.5914 22.898L23.6923 27.1278C24.5798 26.1673 25.8454 25.5666 27.2502 25.5666C29.9349 25.5666 32.1113 27.7606 32.1113 30.4669C32.1113 33.1733 29.9349 35.3673 27.2502 35.3673C24.5655 35.3673 22.3891 33.1733 22.3891 30.4669C22.3891 29.932 22.4741 29.4171 22.6313 28.9352L15.5304 24.7054C14.6429 25.6659 13.3773 26.2666 11.9724 26.2666C9.28772 26.2666 7.11133 24.0727 7.11133 21.3663C7.11133 18.6599 9.28772 16.4659 11.9724 16.4659C13.3773 16.4659 14.6429 17.0666 15.5304 18.0272L22.6313 13.7973L22.6318 13.799C22.4743 13.3166 22.3891 12.8011 22.3891 12.2656C22.3891 9.5592 24.5655 7.36523 27.2502 7.36523C29.9349 7.36523 32.1113 9.5592 32.1113 12.2656ZM30.028 12.2656C30.028 13.8121 28.7843 15.0658 27.2502 15.0658C25.7161 15.0658 24.4724 13.8121 24.4724 12.2656C24.4724 10.7191 25.7161 9.46539 27.2502 9.46539C28.7843 9.46539 30.028 10.7191 30.028 12.2656ZM11.9724 24.1665C13.5066 24.1665 14.7502 22.9128 14.7502 21.3663C14.7502 19.8198 13.5066 18.5661 11.9724 18.5661C10.4383 18.5661 9.19466 19.8198 9.19466 21.3663C9.19466 22.9128 10.4383 24.1665 11.9724 24.1665ZM30.028 30.4669C30.028 32.0135 28.7843 33.2672 27.2502 33.2672C25.7161 33.2672 24.4724 32.0135 24.4724 30.4669C24.4724 28.9204 25.7161 27.6667 27.2502 27.6667C28.7843 27.6667 30.028 28.9204 30.028 30.4669Z" fill="#AAAAAA"/>
</svg>
